<svg width="28" height="19" viewBox="0 0 28 19" version="1.1" xmlns="http://www.w3.org/2000/svg" xmlns:xlink="http://www.w3.org/1999/xlink">
<title>Vector</title>
<desc>Created using Figma</desc>
<g id="Canvas" transform="translate(41 245)">
<g id="Vector">
<use xlink:href="#path0_fill" transform="translate(-40.5 -244.999)" fill="#9266CC"/>
</g>
</g>
<defs>
<path id="path0_fill" d="M 0 16.5C 0 17.3284 0.671573 18 1.5 18L 25.5 18C 26.3284 18 27 17.3284 27 16.5C 27 15.6716 26.3284 15 25.5 15L 1.5 15C 0.671573 15 0 15.6716 0 16.5ZM 0 9C 0 9.82843 0.671573 10.5 1.5 10.5L 25.5 10.5C 26.3284 10.5 27 9.82843 27 9C 27 8.17157 26.3284 7.5 25.5 7.5L 1.5 7.5C 0.671573 7.5 0 8.17157 0 9ZM 1.5 0C 0.671573 0 0 0.671573 0 1.5C 0 2.32843 0.671573 3 1.5 3L 25.5 3C 26.3284 3 27 2.32843 27 1.5C 27 0.671573 26.3284 0 25.5 0L 1.5 0Z"/>
</defs>
</svg>
