<svg width="53" height="38" viewBox="0 0 53 38" version="1.1" xmlns="http://www.w3.org/2000/svg" xmlns:xlink="http://www.w3.org/1999/xlink">
<title>Rectangle 3.2</title>
<desc>Created using Figma</desc>
<g id="Canvas" transform="translate(-1617 -8029)">
<g id="Rectangle 3.2">
<use xlink:href="#path0_fill" transform="translate(1614 8029)" fill="#FFFFFF"/>
<mask id="mask0_outline_ins">
<use xlink:href="#path0_fill" fill="white" transform="translate(1614 8029)"/>
</mask>
<g mask="url(#mask0_outline_ins)">
<use xlink:href="#path1_stroke_2x" transform="translate(1614 8029)" fill="#9E9E9E"/>
</g>
</g>
</g>
<defs>
<path id="path0_fill" d="M 10.7352 4.86603C 10.8078 2.15776 13.0242 0 15.7334 0L 51 0C 53.7614 0 56 2.23858 56 5L 56 33C 56 35.7614 53.7614 38 51 38L 15.7334 38C 13.0242 38 10.8078 35.8422 10.7352 33.134L 10.5796 27.3273C 10.5305 25.4969 9.48491 23.8398 7.85395 23.0076L 5.23697 21.6722C 3.05501 20.5589 3.05501 17.4411 5.23697 16.3278L 7.85395 14.9924C 9.48491 14.1602 10.5305 12.5031 10.5796 10.6727L 10.7352 4.86603Z"/>
<path id="path1_stroke_2x" d="M 10.5796 10.6727L 9.57996 10.6459L 10.5796 10.6727ZM 10.5796 27.3273L 9.57996 27.3541L 10.5796 27.3273ZM 7.85395 23.0076L 7.39944 23.8983L 7.85395 23.0076ZM 5.23697 16.3278L 4.78246 15.437L 5.23697 16.3278ZM 10.7352 33.134L 9.7356 33.1608L 10.7352 33.134ZM 10.7352 4.86603L 9.7356 4.83923L 10.7352 4.86603ZM 15.7334 1L 51 1L 51 -1L 15.7334 -1L 15.7334 1ZM 55 5L 55 33L 57 33L 57 5L 55 5ZM 51 37L 15.7334 37L 15.7334 39L 51 39L 51 37ZM 11.7349 33.1072L 11.5792 27.3005L 9.57996 27.3541L 9.7356 33.1608L 11.7349 33.1072ZM 8.30846 22.1168L 5.69148 20.7815L 4.78246 22.563L 7.39944 23.8983L 8.30846 22.1168ZM 5.69148 17.2185L 8.30846 15.8832L 7.39944 14.1017L 4.78246 15.437L 5.69148 17.2185ZM 11.5792 10.6995L 11.7349 4.89282L 9.7356 4.83923L 9.57996 10.6459L 11.5792 10.6995ZM 8.30846 15.8832C 10.2656 14.8845 11.5204 12.8959 11.5792 10.6995L 9.57996 10.6459C 9.54071 12.1102 8.70421 13.4359 7.39944 14.1017L 8.30846 15.8832ZM 11.5792 27.3005C 11.5204 25.1041 10.2656 23.1155 8.30846 22.1168L 7.39944 23.8983C 8.70421 24.5641 9.54071 25.8898 9.57996 27.3541L 11.5792 27.3005ZM 5.69148 20.7815C 4.23684 20.0392 4.23684 17.9608 5.69148 17.2185L 4.78246 15.437C 1.87318 16.9215 1.87318 21.0785 4.78246 22.563L 5.69148 20.7815ZM 15.7334 37C 13.5661 37 11.793 35.2738 11.7349 33.1072L 9.7356 33.1608C 9.82271 36.4107 12.4824 39 15.7334 39L 15.7334 37ZM 55 33C 55 35.2091 53.2091 37 51 37L 51 39C 54.3137 39 57 36.3137 57 33L 55 33ZM 51 1C 53.2091 1 55 2.79086 55 5L 57 5C 57 1.68629 54.3137 -1 51 -1L 51 1ZM 15.7334 -1C 12.4824 -1 9.82271 1.58931 9.7356 4.83923L 11.7349 4.89282C 11.793 2.72621 13.5661 1 15.7334 1L 15.7334 -1Z"/>
</defs>
</svg>
