<svg width="36" height="36" viewBox="0 0 36 36" version="1.1" xmlns="http://www.w3.org/2000/svg" xmlns:xlink="http://www.w3.org/1999/xlink">
<title>Like</title>
<desc>Created using Figma</desc>
<g id="Canvas" transform="translate(-3312 -3713)">
<g id="Like" filter="url(#filter0_d)">
<use xlink:href="#path0_fill" transform="translate(3322 3713)" fill="#9266CC"/>
<use xlink:href="#path1_fill" transform="translate(3322 3713)" fill="#9266CC"/>
</g>
</g>
<defs>
<filter id="filter0_d" filterUnits="userSpaceOnUse" x="3312" y="3713" width="36" height="36" color-interpolation-filters="sRGB">
<feFlood flood-opacity="0" result="BackgroundImageFix"/>
<feColorMatrix in="SourceAlpha" type="matrix" values="0 0 0 0 0 0 0 0 0 0 0 0 0 0 0 0 0 0 255 0"/>
<feOffset dx="0" dy="10"/>
<feGaussianBlur stdDeviation="5"/>
<feColorMatrix type="matrix" values="0 0 0 0 0.572549 0 0 0 0 0.4 0 0 0 0 0.8 0 0 0 0.2 0"/>
<feBlend mode="normal" in2="BackgroundImageFix" result="effect1_dropShadow"/>
<feBlend mode="normal" in="SourceGraphic" in2="effect1_dropShadow" result="shape"/>
</filter>
<path id="path0_fill" d="M 4 14.8128L 4.48494 14.8128C 4.87039 14.8128 5.20026 14.9641 5.58199 15.139C 5.77431 15.2272 5.97978 15.3214 6.21216 15.4053C 7.1621 15.7441 8.58097 15.9983 11.025 15.9983C 11.4524 15.9983 12.7781 16 12.7781 16C 13.1839 16 13.51 15.8091 13.7453 15.5787C 13.8349 15.4911 13.9283 15.3638 13.9682 15.1156C 13.9747 15.0771 13.9817 14.9159 13.9806 14.8941C 14.0114 14.1837 13.5941 13.9265 13.3578 13.8457C 13.3602 13.8448 13.3611 13.8434 13.362 13.842C 13.3635 13.8397 13.3648 13.8376 13.3729 13.8379L 14.1231 13.8725C 14.7891 13.9037 15.4466 13.4099 15.4466 12.5702C 15.4466 11.8739 14.8982 11.3829 14.2343 11.3494L 14.6321 11.3684C 15.2981 11.3985 15.8611 10.8589 15.8919 10.1621C 15.9211 9.46517 15.4051 8.87545 14.7395 8.84413C 15.405 8.87538 15.9696 8.33586 15.9987 7.63894C 16.0279 6.94203 15.5599 6.31543 14.8938 6.28537L 10.4722 5.71399C 10.4722 5.71399 11.3937 4.12771 11.3937 1.77756C 11.3937 0.210801 10.3062 1.40095e-08 9.66653 1.40095e-08C 9.16338 -0.000136887 9.02789 1.00312 9.02789 1.00312L 9.02686 1.00312C 8.913 1.64647 8.76458 2.20831 8.24902 3.24276C 7.92055 3.90285 7.52436 4.15188 7.07472 4.43451C 6.73457 4.64832 6.36382 4.88137 5.96866 5.32614C 5.80673 5.50802 5.58922 5.80821 5.37712 6.17759C 5.35981 6.19712 5.3436 6.22446 5.32796 6.26293C 5.31716 6.28911 5.30509 6.31076 5.29301 6.33247C 5.284 6.34862 5.27498 6.3648 5.26647 6.38289C 5.2314 6.44931 5.19686 6.51564 5.16289 6.58543L 4 7.27271L 4 14.8128Z"/>
<path id="path1_fill" d="M 2.90909 7.27275L 0 7.27275L 0 16L 2.90909 16L 2.90909 7.27275Z"/>
</defs>
</svg>
