<svg width="388" height="143" viewBox="0 0 388 143" version="1.1" xmlns="http://www.w3.org/2000/svg" xmlns:xlink="http://www.w3.org/1999/xlink">
<title>Logo Desctop 384x140</title>
<desc>Created using Figma</desc>
<g id="Canvas" transform="translate(-48 603)">
<g id="Logo Desctop 384x140">
<g id="h2" filter="url(#filter0_d)">
<use xlink:href="#path0_fill" transform="translate(140.683 -600.424)" fill="#9266CC"/>
<use xlink:href="#path1_fill" transform="translate(140.683 -600.424)" fill="#9266CC"/>
<use xlink:href="#path2_fill" transform="translate(140.683 -600.424)" fill="#9266CC"/>
<use xlink:href="#path3_fill" transform="translate(140.683 -600.424)" fill="#9266CC"/>
<use xlink:href="#path4_fill" transform="translate(140.683 -600.424)" fill="#9266CC"/>
<use xlink:href="#path5_fill" transform="translate(140.683 -600.424)" fill="#9266CC"/>
<use xlink:href="#path6_fill" transform="translate(140.683 -600.424)" fill="#9266CC"/>
</g>
<g id="Vector" filter="url(#filter1_d)">
<use xlink:href="#path7_fill" transform="translate(58 -603)" fill="#553788"/>
<use xlink:href="#path8_fill" transform="translate(58 -603)" fill="#553788"/>
</g>
</g>
</g>
<defs>
<filter id="filter0_d" filterUnits="userSpaceOnUse" x="90" y="-601" width="346" height="141" color-interpolation-filters="sRGB">
<feFlood flood-opacity="0" result="BackgroundImageFix"/>
<feColorMatrix in="SourceAlpha" type="matrix" values="0 0 0 0 0 0 0 0 0 0 0 0 0 0 0 0 0 0 255 0"/>
<feOffset dx="-20" dy="40"/>
<feGaussianBlur stdDeviation="15"/>
<feColorMatrix type="matrix" values="0 0 0 0 0.262963 0 0 0 0 0 0 0 0 0 0.71 0 0 0 0.15 0"/>
<feBlend mode="normal" in2="BackgroundImageFix" result="effect1_dropShadow"/>
<feBlend mode="normal" in="SourceGraphic" in2="effect1_dropShadow" result="shape"/>
</filter>
<filter id="filter1_d" filterUnits="userSpaceOnUse" x="48" y="-603" width="140" height="127" color-interpolation-filters="sRGB">
<feFlood flood-opacity="0" result="BackgroundImageFix"/>
<feColorMatrix in="SourceAlpha" type="matrix" values="0 0 0 0 0 0 0 0 0 0 0 0 0 0 0 0 0 0 255 0"/>
<feOffset dx="20" dy="40"/>
<feGaussianBlur stdDeviation="15"/>
<feColorMatrix type="matrix" values="0 0 0 0 0.262963 0 0 0 0 0 0 0 0 0 0.71 0 0 0 0.1 0"/>
<feBlend mode="normal" in2="BackgroundImageFix" result="effect1_dropShadow"/>
<feBlend mode="normal" in="SourceGraphic" in2="effect1_dropShadow" result="shape"/>
</filter>
<path id="path0_fill" d="M 25.848 0C 32.952 0 39.12 2.568 44.352 7.704C 49.584 12.84 52.2 19.224 52.2 26.856C 52.2 34.44 49.704 40.92 44.712 46.296C 39.72 51.624 33.576 54.288 26.28 54.288C 18.984 54.288 12.768 51.648 7.632 46.368C 2.544 41.088 0 34.8 0 27.504C 0 23.52 0.719996 19.8 2.16 16.344C 3.6 12.84 5.52 9.912 7.92 7.56C 10.32 5.208 13.08 3.36 16.2 2.016C 19.32 0.671999 22.536 0 25.848 0ZM 12.744 27.144C 12.744 31.416 14.112 34.896 16.848 37.584C 19.632 40.224 22.728 41.544 26.136 41.544C 29.544 41.544 32.616 40.248 35.352 37.656C 38.088 35.064 39.456 31.584 39.456 27.216C 39.456 22.848 38.064 19.344 35.28 16.704C 32.544 14.064 29.472 12.744 26.064 12.744C 22.656 12.744 19.584 14.088 16.848 16.776C 14.112 19.416 12.744 22.872 12.744 27.144Z"/>
<path id="path1_fill" d="M 68.7881 34.488C 68.7881 36.504 69.4601 38.088 70.8041 39.24C 72.1481 40.344 73.5641 40.896 75.0521 40.896C 76.5881 40.896 78.0041 40.464 79.3001 39.6C 80.6441 38.688 81.7241 38.232 82.5401 38.232C 83.9801 38.232 85.7321 39.504 87.7961 42.048C 88.9001 43.44 89.4521 44.688 89.4521 45.792C 89.4521 47.616 88.1321 49.32 85.4921 50.904C 82.7561 52.824 79.3961 53.784 75.4121 53.784C 70.9481 53.784 66.6521 52.176 62.5241 48.96C 60.5561 47.424 58.9481 45.384 57.7001 42.84C 56.4521 40.248 55.8281 37.416 55.8281 34.344C 55.8281 31.224 56.4521 28.416 57.7001 25.92C 58.9481 23.376 60.5561 21.336 62.5241 19.8C 66.5081 16.632 70.7561 15.048 75.2681 15.048C 77.0921 15.048 78.8681 15.312 80.5961 15.84C 82.3241 16.32 83.5961 16.8 84.4121 17.28L 85.5641 18C 86.4281 18.576 87.1001 19.032 87.5801 19.368C 88.8281 20.328 89.4521 21.432 89.4521 22.68C 89.4521 23.88 88.9481 25.248 87.9401 26.784C 86.2121 29.424 84.5561 30.744 82.9721 30.744C 82.0601 30.744 80.7641 30.216 79.0841 29.16C 78.2201 28.344 76.9721 27.936 75.3401 27.936C 73.7561 27.936 72.2681 28.512 70.8761 29.664C 69.4841 30.816 68.7881 32.424 68.7881 34.488Z"/>
<path id="path2_fill" d="M 115.432 28.224L 110.752 27.936L 110.752 37.872C 110.752 39.168 110.944 40.104 111.328 40.68C 111.76 41.256 112.528 41.544 113.632 41.544C 114.784 41.544 115.648 41.592 116.224 41.688C 116.848 41.736 117.496 41.952 118.168 42.336C 119.272 42.96 119.824 44.568 119.824 47.16C 119.824 50.184 119.152 52.032 117.808 52.704C 117.088 53.04 116.44 53.256 115.864 53.352C 115.336 53.4 114.544 53.424 113.488 53.424C 108.496 53.424 104.704 52.296 102.112 50.04C 99.5203 47.784 98.2243 43.968 98.2243 38.592L 98.2243 27.936C 97.3123 28.08 96.3283 28.152 95.2723 28.152C 94.2163 28.152 93.3283 27.744 92.6083 26.928C 91.9363 26.112 91.6003 24.72 91.6003 22.752C 91.6003 20.784 91.7203 19.368 91.9603 18.504C 92.2003 17.592 92.5363 16.944 92.9683 16.56C 93.7363 15.936 94.6963 15.624 95.8483 15.624L 98.2243 15.912L 98.2243 8.496C 98.2243 7.392 98.2483 6.576 98.2963 6.048C 98.3923 5.52 98.6323 4.944 99.0163 4.32C 99.6403 3.12 101.488 2.52 104.56 2.52C 107.824 2.52 109.768 3.408 110.392 5.184C 110.632 5.952 110.752 7.176 110.752 8.856L 110.752 15.912C 112.864 15.72 114.448 15.624 115.504 15.624C 116.608 15.624 117.424 15.672 117.952 15.768C 118.528 15.816 119.176 16.032 119.896 16.416C 121.144 17.04 121.768 18.888 121.768 21.96C 121.768 24.984 121.12 26.832 119.824 27.504C 119.104 27.84 118.456 28.056 117.88 28.152C 117.352 28.2 116.536 28.224 115.432 28.224Z"/>
<path id="path3_fill" d="M 124.664 34.488C 124.664 28.728 126.68 23.976 130.712 20.232C 134.744 16.488 139.352 14.616 144.536 14.616C 149.72 14.616 154.304 16.488 158.288 20.232C 162.272 23.928 164.264 28.656 164.264 34.416C 164.264 38.4 163.232 41.952 161.168 45.072C 159.104 48.144 156.584 50.424 153.608 51.912C 150.68 53.352 147.632 54.072 144.464 54.072C 141.296 54.072 138.224 53.304 135.248 51.768C 132.272 50.184 129.752 47.88 127.688 44.856C 125.672 41.784 124.664 38.328 124.664 34.488ZM 139.712 39.672C 141.248 40.824 142.808 41.4 144.392 41.4C 145.976 41.4 147.56 40.8 149.144 39.6C 150.728 38.4 151.52 36.624 151.52 34.272C 151.52 31.92 150.776 30.168 149.288 29.016C 147.8 27.864 146.192 27.288 144.464 27.288C 142.736 27.288 141.128 27.888 139.64 29.088C 138.152 30.288 137.408 32.064 137.408 34.416C 137.408 36.72 138.176 38.472 139.712 39.672Z"/>
<path id="path4_fill" d="M 168.916 63.72L 168.916 21.672C 168.916 20.568 168.94 19.752 168.988 19.224C 169.084 18.696 169.3 18.096 169.636 17.424C 170.308 16.128 171.916 15.48 174.46 15.48C 177.004 15.48 178.708 15.816 179.572 16.488C 180.484 17.112 181.012 18.048 181.156 19.296C 182.98 16.8 185.836 15.552 189.724 15.552C 193.66 15.552 197.38 17.4 200.884 21.096C 204.388 24.792 206.14 29.088 206.14 33.984C 206.14 38.88 204.388 43.176 200.884 46.872C 197.428 50.568 193.732 52.416 189.796 52.416C 185.86 52.416 183.004 51.312 181.228 49.104L 181.228 63.648C 181.228 64.752 181.18 65.568 181.084 66.096C 181.036 66.624 180.82 67.224 180.436 67.896C 180.1 68.616 179.5 69.12 178.636 69.408C 177.772 69.696 176.596 69.84 175.108 69.84C 173.62 69.84 172.42 69.696 171.508 69.408C 170.644 69.12 170.02 68.64 169.636 67.968C 169.3 67.296 169.084 66.696 168.988 66.168C 168.94 65.64 168.916 64.824 168.916 63.72ZM 183.172 29.808C 182.068 31.104 181.516 32.52 181.516 34.056C 181.516 35.592 182.068 37.008 183.172 38.304C 184.324 39.552 185.764 40.176 187.492 40.176C 189.268 40.176 190.756 39.552 191.956 38.304C 193.204 37.056 193.828 35.64 193.828 34.056C 193.828 32.472 193.252 31.056 192.1 29.808C 190.948 28.512 189.436 27.864 187.564 27.864C 185.74 27.864 184.276 28.512 183.172 29.808Z"/>
<path id="path5_fill" d="M 227.67 53.28C 222.822 53.28 218.79 51.456 215.574 47.808C 212.406 44.112 210.822 39.624 210.822 34.344L 210.822 21.744C 210.822 20.592 210.846 19.752 210.894 19.224C 210.99 18.696 211.206 18.072 211.542 17.352C 212.214 16.056 214.086 15.408 217.158 15.408C 220.518 15.408 222.486 16.32 223.062 18.144C 223.35 18.912 223.494 20.136 223.494 21.816L 223.494 34.416C 223.494 36.384 224.046 37.92 225.15 39.024C 226.302 40.128 227.814 40.68 229.686 40.68C 231.606 40.68 233.142 40.104 234.294 38.952C 235.494 37.8 236.094 36.288 236.094 34.416L 236.094 21.672C 236.094 20.568 236.118 19.752 236.166 19.224C 236.262 18.648 236.502 18 236.886 17.28C 237.51 16.032 239.358 15.408 242.43 15.408C 245.454 15.408 247.302 16.056 247.974 17.352C 248.31 18.072 248.502 18.72 248.55 19.296C 248.646 19.824 248.694 20.64 248.694 21.744L 248.694 47.232C 248.694 48.288 248.646 49.104 248.55 49.68C 248.502 50.208 248.286 50.808 247.902 51.48C 247.182 52.728 245.334 53.352 242.358 53.352C 239.43 53.352 237.63 52.776 236.958 51.624C 236.478 50.808 236.238 49.824 236.238 48.672C 236.046 49.008 235.614 49.488 234.942 50.112C 234.27 50.736 233.622 51.264 232.998 51.696C 231.366 52.752 229.59 53.28 227.67 53.28Z"/>
<path id="path6_fill" d="M 254.774 50.04C 253.862 49.464 253.406 48.552 253.406 47.304C 253.406 46.056 254.318 44.16 256.142 41.616C 256.67 40.8 257.51 40.392 258.662 40.392C 259.862 40.392 261.47 40.992 263.486 42.192C 265.502 43.344 267.326 43.92 268.958 43.92C 271.886 43.92 273.35 43.344 273.35 42.192C 273.35 41.28 271.742 40.608 268.526 40.176C 265.502 39.744 262.502 38.616 259.526 36.792C 258.134 35.928 256.982 34.584 256.07 32.76C 255.158 30.888 254.702 28.68 254.702 26.136C 254.702 18.552 259.91 14.76 270.326 14.76C 273.734 14.76 277.238 15.576 280.838 17.208C 282.518 17.976 283.358 18.936 283.358 20.088C 283.358 21.24 282.83 22.656 281.774 24.336C 280.718 26.016 279.638 26.856 278.534 26.856C 277.958 26.856 276.878 26.496 275.294 25.776C 273.758 25.056 272.078 24.696 270.254 24.696C 267.422 24.696 266.006 25.224 266.006 26.28C 266.006 27.72 267.638 28.656 270.902 29.088C 274.07 29.424 277.142 30.336 280.118 31.824C 281.51 32.496 282.662 33.672 283.574 35.352C 284.534 36.984 285.014 39.048 285.014 41.544C 285.014 44.04 284.534 46.176 283.574 47.952C 282.662 49.68 281.366 50.976 279.686 51.84C 276.614 53.328 272.75 54.072 268.094 54.072C 263.486 54.072 259.046 52.728 254.774 50.04Z"/>
<path id="path7_fill" d="M 20.808 17.784C 25.08 17.784 28.992 19.68 32.544 23.472C 36.144 27.264 37.944 31.68 37.944 36.72C 37.944 41.712 36.168 46.104 32.616 49.896C 29.064 53.64 25.248 55.512 21.168 55.512C 17.088 55.512 14.184 54.36 12.456 52.056C 12.072 54.408 10.008 55.584 6.26401 55.584C 3.24001 55.584 1.392 54.936 0.720001 53.64C 0.384001 52.92 0.167991 52.296 0.071991 51.768C 0.023991 51.192 0 50.352 0 49.248L 0 6.26401C 0 5.16001 0.023991 4.34401 0.071991 3.81601C 0.167991 3.24001 0.384001 2.616 0.720001 1.944C 1.392 0.648 3.264 0 6.336 0C 9.36 0 11.184 0.648 11.808 1.944C 12.192 2.664 12.408 3.312 12.456 3.888C 12.552 4.416 12.6 5.232 12.6 6.336L 12.6 21.312C 14.52 18.96 17.256 17.784 20.808 17.784ZM 14.472 41.04C 15.672 42.336 17.16 42.984 18.936 42.984C 20.712 42.984 22.224 42.336 23.472 41.04C 24.72 39.744 25.344 38.304 25.344 36.72C 25.344 35.136 24.768 33.696 23.616 32.4C 22.464 31.056 20.928 30.384 19.008 30.384C 17.088 30.384 15.552 31.056 14.4 32.4C 13.296 33.744 12.744 35.208 12.744 36.792C 12.744 38.328 13.32 39.744 14.472 41.04Z"/>
<path id="path8_fill" d="M 79.1854 32.184C 79.1854 35.112 78.4414 37.296 76.9534 38.736C 75.5134 40.128 73.9054 40.824 72.1294 40.824L 55.0654 40.824C 55.0654 42.168 55.8574 43.296 57.4414 44.208C 59.0254 45.12 60.6094 45.576 62.1934 45.576C 64.9774 45.576 67.1614 45.288 68.7454 44.712L 69.5374 44.424C 70.6894 43.896 71.6494 43.632 72.4174 43.632C 73.9534 43.632 75.2734 44.712 76.3774 46.872C 77.0014 48.168 77.3134 49.272 77.3134 50.184C 77.3134 54.456 72.2014 56.592 61.9774 56.592C 58.4254 56.592 55.2574 55.992 52.4734 54.792C 49.7374 53.544 47.6014 51.912 46.0654 49.896C 43.0414 46.008 41.5294 41.664 41.5294 36.864C 41.5294 30.816 43.4734 25.992 47.3614 22.392C 51.2974 18.744 56.1934 16.92 62.0494 16.92C 68.7214 16.92 73.6174 19.272 76.7374 23.976C 78.3694 26.472 79.1854 29.208 79.1854 32.184ZM 63.9934 34.272C 65.8174 34.272 66.7294 33.504 66.7294 31.968C 66.7294 30.864 66.2974 29.976 65.4334 29.304C 64.6174 28.632 63.4174 28.296 61.8334 28.296C 60.2974 28.296 58.7614 28.944 57.2254 30.24C 55.6894 31.488 54.9214 32.832 54.9214 34.272L 63.9934 34.272Z"/>
</defs>
</svg>
