<svg width="269" height="160" viewBox="0 0 269 55" version="1.1" xmlns="http://www.w3.org/2000/svg" xmlns:xlink="http://www.w3.org/1999/xlink">
<title>Union</title>
<desc>Created using Figma</desc>
<g id="Canvas" transform="translate(4 -110)">
<g id="Union">
<use xlink:href="#path0_fill" transform="translate(-3.628 60)" fill="rgb(182, 127, 255)"/>
</g>
</g>
<defs>
<path id="path0_fill" fill-rule="evenodd" d="M 20.7092 0C 20.7092 0 20.7092 0 20.7092 0C 15.1863 0 10.7092 4.47715 10.7092 10L 10.7092 10.6165C 10.7092 12.7349 9.3515 14.5627 7.81454 16.0205C 7.81453 16.0205 7.81452 16.0205 7.81452 16.0205L 3.11821 20.4751C 3.11819 20.4751 3.11817 20.4751 3.11814 20.4751C -0.947274 24.3313 -1.05118 30.7748 2.88771 34.7601C 2.88773 34.7601 2.88775 34.7601 2.88777 34.7601L 7.77229 39.702C 7.77229 39.702 7.77229 39.702 7.77229 39.7021C 7.85776 39.7885 7.94465 39.8733 8.03289 39.9563C 9.47153 41.3097 10.7092 43.0248 10.7092 45C 10.7092 50.5229 15.1863 55 20.7092 55C 20.7092 55 20.7092 55 20.7092 55L 258.628 55C 264.151 55 268.628 50.5229 268.628 45L 268.628 10C 268.628 10 268.628 10 268.628 10C 268.628 4.47715 264.151 0 258.628 0L 20.7092 0Z"/>
</defs>
</svg>
